<svg width="55" height="78" viewBox="0 0 55 78" fill="none" xmlns="http://www.w3.org/2000/svg">
<path d="M54.9912 15.4412C55.0334 12.9181 54.9239 10.4119 54.4775 7.93075C54.1743 6.2208 53.728 4.54437 52.7848 3.05235C51.0752 0.370062 47.8581 -0.979463 44.4894 1.27533C43.344 2.04649 42.4345 3.03558 41.626 4.14203C40.0343 6.32976 39.1332 8.81926 38.4173 11.3842C36.5224 18.1234 35.3602 25.0052 34.5265 31.9456C34.3581 33.3454 34.257 34.7536 34.097 36.1534C34.038 36.6731 33.8612 36.7989 33.3306 36.7402C32.9011 36.6899 32.4716 36.6061 32.0505 36.5055C30.6946 36.187 29.3219 35.9523 27.9239 36.0277C26.509 36.1031 25.0942 36.2289 23.6877 36.3378C22.5929 36.43 22.2561 36.187 22.0287 35.114C22.0034 34.9883 21.9866 34.8626 21.9697 34.7452C21.4392 31.3337 20.9675 27.9222 20.3612 24.5274C19.4853 19.5735 18.3484 14.67 16.5967 9.94247C15.704 7.52841 14.6513 5.18141 13.068 3.11102C12.3521 2.17222 11.5858 1.26695 10.533 0.696965C8.04864 -0.660942 5.27789 0.0263935 3.62724 2.37339C2.38083 4.12526 1.81657 6.14536 1.50497 8.22413C0.595423 14.3179 0.965978 20.3699 2.1787 26.3882C3.06298 30.7972 4.66311 34.9632 6.55799 39.0285C7.17278 40.3529 7.71177 41.7276 8.20865 43.1022C8.5792 44.1248 8.41919 45.0888 7.77914 46.0444C7.08014 47.1005 6.46535 48.2237 5.93479 49.3804C2.33872 57.268 4.32624 66.413 10.8531 72.1044C12.7311 73.739 14.7692 75.1388 17.2199 75.7339C20.9423 76.6392 24.7152 77.1673 28.5639 76.9577C32.6063 76.7398 36.4298 75.759 39.9922 73.8312C42.6534 72.3894 44.9694 70.5537 46.7043 68.0475C48.9529 64.7952 49.7614 61.1406 49.5003 57.2597C49.3571 55.0803 48.9529 52.9177 48.6244 50.7467C48.4897 49.875 48.5318 49.0619 48.8434 48.2405C49.3487 46.8658 49.8372 45.4828 50.2835 44.0829C52.0436 38.5675 53.189 32.9263 53.9891 27.2013C54.528 23.3036 54.907 19.3891 54.9912 15.4412Z" fill="white"/>
<path d="M54.9908 15.4413C54.9066 19.3809 54.5276 23.3038 53.9802 27.2015C53.1801 32.9265 52.0264 38.5677 50.2747 44.0831C49.8283 45.4829 49.3399 46.866 48.8345 48.2407C48.5314 49.0705 48.4893 49.8836 48.6156 50.7469C48.944 52.9095 49.3483 55.0805 49.4914 57.2598C49.7525 61.1324 48.944 64.787 46.6954 68.0477C44.9606 70.5539 42.6446 72.3896 39.9833 73.8313C36.4209 75.7676 32.5975 76.7483 28.5551 76.9579C24.7064 77.159 20.9334 76.6394 17.211 75.7341C14.7603 75.139 12.7223 73.7391 10.8442 72.1046C4.31739 66.4131 2.32987 57.2682 5.93436 49.3722C6.45651 48.2155 7.07129 47.0923 7.77871 46.0362C8.41034 45.0806 8.57035 44.1166 8.20822 43.094C7.71134 41.7194 7.18077 40.3447 6.55757 39.0203C4.66268 34.955 3.06256 30.789 2.17828 26.38C0.965551 20.37 0.594996 14.3181 1.50454 8.22431C1.81614 6.13716 2.3804 4.12545 3.61839 2.3652C5.26904 0.0265783 8.03979 -0.660757 10.5242 0.688768C11.5769 1.25875 12.3433 2.17241 13.0591 3.10282C14.6424 5.16483 15.6867 7.51183 16.5878 9.93427C18.3395 14.6702 19.4765 19.5654 20.3523 24.5192C20.9587 27.914 21.4303 31.3339 21.9609 34.737C21.9777 34.8628 21.9946 34.9885 22.0198 35.1058C22.2556 36.1788 22.5925 36.4218 23.6789 36.3296C25.0937 36.2123 26.5002 36.0949 27.915 36.0195C29.313 35.9441 30.6858 36.1788 32.0417 36.4973C32.4627 36.5979 32.8923 36.6817 33.3218 36.732C33.8523 36.7907 34.0292 36.6649 34.0881 36.1452C34.2481 34.7454 34.3492 33.3372 34.5176 31.9374C35.3514 24.997 36.5136 18.1152 38.4085 11.376C39.1327 8.81106 40.0339 6.32157 41.6171 4.13383C42.4172 3.02739 43.3352 2.02991 44.4805 1.26714C47.8492 -0.996043 51.0663 0.361864 52.7759 3.04415C53.7276 4.53617 54.1655 6.20422 54.4687 7.92256C54.915 10.4204 55.0329 12.9267 54.9908 15.4413ZM47.007 46.4134C47.167 46.1367 47.3271 45.9272 47.4197 45.6925C47.7313 44.871 48.0682 44.058 48.3208 43.2114C49.8199 38.1402 50.9821 32.9935 51.9169 27.7966C53.0875 21.334 53.4581 14.8462 52.4727 8.3249C52.2538 6.89155 51.9253 5.49173 51.1084 4.26794C50.182 2.87651 48.944 2.03829 47.1839 2.28976C45.9459 2.46578 45.0195 3.17826 44.2952 4.15897C43.3267 5.47497 42.6278 6.93346 41.9877 8.42549C40.337 12.2561 39.2254 16.246 38.3074 20.2946C37.1031 25.6424 36.3199 31.0573 35.7641 36.514C35.7219 36.8996 35.6293 37.2852 35.4777 37.6373C35.2588 38.1569 34.9387 38.2659 34.3913 38.1318C30.5847 37.1679 26.7444 37.017 22.8788 37.7546C22.2051 37.8803 21.5229 37.9977 20.8408 38.0731C20.3018 38.1318 20.2428 38.048 20.2007 37.5199C20.1418 36.7571 20.0913 35.986 20.007 35.2232C19.3417 29.2132 18.2553 23.287 16.7141 17.4363C15.872 14.2175 14.8866 11.0407 13.4465 8.03152C12.8233 6.73229 12.1748 5.44144 11.1053 4.43559C9.47148 2.89327 7.22288 2.85136 5.5638 4.35176C4.40161 5.38277 3.81209 6.74906 3.4668 8.22431C2.80148 11.0239 2.66674 13.8655 2.81833 16.7154C3.20573 23.7229 4.90691 30.4202 7.67765 36.8577C8.34297 38.4084 9.19356 39.8753 10.002 41.3589C10.3389 41.9792 10.4989 41.9708 11.1137 41.6188C11.5011 41.4008 11.8801 41.1494 12.2843 40.9566C12.7138 40.7554 13.076 41.032 12.9749 41.493C12.916 41.7613 12.7307 42.0211 12.5454 42.2307C11.6443 43.203 10.6505 44.0999 9.80835 45.1225C8.03979 47.2516 6.58283 49.5818 6.08595 52.3479C5.54696 55.3236 5.46274 58.316 5.97647 61.3084C6.38913 63.7057 7.21446 65.9437 8.72195 67.8968C9.93467 69.4559 11.4674 70.688 13.0002 71.9118C15.1814 73.6553 17.649 74.745 20.4281 75.139C23.6115 75.5916 26.8118 75.5581 30.0036 75.3569C32.2859 75.2144 34.5261 74.8288 36.6315 73.9152C38.8717 72.9512 40.9266 71.6604 42.8299 70.1516C44.8005 68.5841 46.3165 66.6562 47.1249 64.2589C48.3714 60.5624 48.4219 56.7988 47.5208 53.0185C46.9144 50.4787 45.6932 48.2323 44.0594 46.1954C43.8573 45.944 43.6973 45.5835 43.6805 45.2566C43.6384 44.6447 44.1521 44.3346 44.6911 44.6196C45.0448 44.804 45.3816 45.0471 45.6933 45.2985C46.1228 45.6338 46.5186 46.0026 47.007 46.4134Z" fill="black"/>
<path d="M27.2673 62.7236C27.2673 62.7068 27.2673 62.6817 27.2673 62.6649C28.4969 62.6649 29.7349 62.6817 30.9644 62.6565C31.6382 62.6481 31.9498 62.1201 31.6297 61.5249C31.4866 61.2483 31.2508 60.9968 31.0065 60.8041C29.4232 59.5551 26.6104 59.3623 24.8755 60.385C24.2271 60.7621 23.6544 61.2315 23.3091 61.9189C23.0396 62.4721 23.1743 62.7068 23.7723 62.7068C24.9429 62.7236 26.1051 62.7236 27.2673 62.7236ZM39.5798 57.5937C39.6135 57.5769 39.6556 57.5686 39.6893 57.5518C39.7062 57.4344 39.7314 57.3087 39.7398 57.1914C39.7988 56.4705 39.8409 55.7413 39.9083 55.0204C39.9588 54.4923 40.0599 54.4169 40.5989 54.4001C40.8515 54.3917 41.1042 54.4085 41.3568 54.4001C41.5842 54.3917 41.8453 54.3917 41.8453 54.0732C41.8453 53.7798 41.7105 53.5619 41.3652 53.5619C41.1126 53.5619 40.8599 53.5619 40.6073 53.5619C40.0009 53.5619 39.9841 53.5451 39.9757 52.9249C39.9672 52.6902 39.9757 52.4471 39.9588 52.2124C39.9167 51.8184 39.6219 51.7849 39.3103 51.7765C39.0072 51.7681 38.8892 51.9358 38.8977 52.2208C38.9061 52.4722 38.8892 52.7237 38.8977 52.9751C38.9229 53.3523 38.7461 53.5032 38.3755 53.4948C37.9797 53.4865 37.5839 53.4865 37.1965 53.5451C37.0533 53.5703 36.9438 53.7631 36.8175 53.8804C36.9438 53.9978 37.0617 54.1822 37.2049 54.2157C37.5334 54.2744 37.8786 54.2492 38.2155 54.266C38.7629 54.2911 38.8471 54.3833 38.8556 54.9114C38.864 55.4143 38.8556 55.9173 38.8808 56.4202C38.8892 56.9567 39.2682 57.25 39.5798 57.5937ZM14.8874 58.7923C14.9211 58.5157 14.9463 58.3732 14.9548 58.2224C15.0053 57.5099 15.0642 56.8058 15.1063 56.0933C15.1316 55.6742 15.3422 55.4898 15.7548 55.5065C16.0243 55.5149 16.2854 55.5149 16.5549 55.5065C16.7738 55.4982 17.0518 55.5149 17.0518 55.1964C17.0518 54.8779 16.9002 54.6683 16.538 54.6767C16.218 54.6851 15.8896 54.6767 15.5695 54.6767C15.3085 54.6851 15.1821 54.5678 15.1821 54.3079C15.1821 53.9894 15.1821 53.6625 15.1653 53.344C15.14 52.9835 14.8621 52.9081 14.5674 52.8913C14.2558 52.8746 14.0957 53.0254 14.0957 53.3356C14.0957 53.6122 14.0873 53.8972 14.0957 54.1738C14.1042 54.4755 13.961 54.6097 13.6662 54.6097C13.262 54.618 12.8493 54.6264 12.4451 54.6432C12.2177 54.6516 12.0156 54.7102 12.024 54.9952C12.0324 55.2551 12.2009 55.3557 12.4451 55.3557C12.7567 55.3641 13.0599 55.3724 13.3715 55.3808C13.9778 55.406 14.0536 55.4814 14.0536 56.0682C14.0536 56.4873 14.0621 56.9064 14.0536 57.3255C14.0284 57.9374 14.4158 58.3062 14.8874 58.7923Z" fill="white"/>
<path d="M27.2673 62.7236C26.1051 62.7236 24.9429 62.732 23.7807 62.7236C23.1828 62.7152 23.048 62.4805 23.3175 61.9357C23.6628 61.2483 24.2355 60.7789 24.884 60.4017C26.6188 59.3791 29.4317 59.5719 31.015 60.8209C31.2592 61.0136 31.4866 61.2651 31.6382 61.5417C31.9582 62.1369 31.6466 62.6566 30.9728 62.6733C29.7433 62.6985 28.5053 62.6817 27.2757 62.6817C27.2673 62.6817 27.2673 62.6985 27.2673 62.7236Z" fill="black"/>
<path d="M39.5798 57.5937C39.2767 57.25 38.8893 56.9566 38.864 56.4369C38.8387 55.934 38.8471 55.4311 38.8387 54.9282C38.8303 54.4001 38.7461 54.3079 38.1987 54.2827C37.8618 54.266 37.5165 54.2911 37.1881 54.2324C37.0449 54.2073 36.927 54.0145 36.8007 53.8972C36.927 53.7798 37.0365 53.5786 37.1796 53.5619C37.567 53.5032 37.9629 53.5032 38.3587 53.5116C38.7292 53.52 38.9061 53.3775 38.8808 52.9919C38.864 52.7404 38.8808 52.489 38.8808 52.2375C38.8724 51.9525 38.9903 51.7849 39.2935 51.7933C39.6051 51.8016 39.9083 51.8352 39.942 52.2291C39.9672 52.4638 39.9588 52.7069 39.9588 52.9416C39.9672 53.5619 39.9841 53.5786 40.5904 53.5786C40.8431 53.5786 41.0957 53.5786 41.3484 53.5786C41.6937 53.5786 41.8284 53.7882 41.8284 54.09C41.8284 54.4085 41.5674 54.4085 41.34 54.4169C41.0873 54.4252 40.8347 54.4169 40.582 54.4169C40.043 54.4252 39.942 54.5091 39.8914 55.0371C39.8241 55.758 39.782 56.4872 39.723 57.2081C39.7146 57.3255 39.6893 57.4512 39.6725 57.5685C39.6556 57.5685 39.6135 57.5769 39.5798 57.5937Z" fill="black"/>
<path d="M14.8874 58.7923C14.4158 58.3062 14.0284 57.9374 14.0536 57.3255C14.0705 56.9064 14.0536 56.4873 14.0536 56.0682C14.0536 55.4814 13.9778 55.406 13.3715 55.3808C13.0599 55.3724 12.7567 55.3641 12.4451 55.3557C12.2009 55.3557 12.0324 55.2551 12.024 54.9952C12.0156 54.7102 12.2093 54.6516 12.4451 54.6432C12.8493 54.6264 13.262 54.618 13.6662 54.6097C13.961 54.6097 14.1042 54.4756 14.0957 54.1738C14.0873 53.8972 14.0957 53.6122 14.0957 53.3356C14.0957 53.0171 14.2558 52.8746 14.5674 52.8913C14.8705 52.9081 15.14 52.9752 15.1653 53.344C15.1906 53.6625 15.1906 53.9894 15.1821 54.3079C15.1821 54.5761 15.3085 54.6851 15.5695 54.6767C15.8896 54.6683 16.218 54.6767 16.538 54.6767C16.9002 54.6683 17.0602 54.8779 17.0518 55.1964C17.0518 55.5149 16.7738 55.4982 16.5549 55.5066C16.2854 55.5149 16.0243 55.5149 15.7548 55.5066C15.3422 55.4898 15.1316 55.6742 15.1063 56.0933C15.0642 56.8058 15.0053 57.5099 14.9548 58.2223C14.9463 58.3732 14.9211 58.5241 14.8874 58.7923Z" fill="black"/>
</svg>
