<svg width="63" height="81" viewBox="0 0 63 81" fill="none" xmlns="http://www.w3.org/2000/svg">
<path d="M53.9926 15.4352C54.0348 12.9121 53.9253 10.4059 53.4789 7.92477C53.1757 6.21482 52.7294 4.53839 51.7862 3.04637C50.0766 0.36408 46.8595 -0.985445 43.4908 1.26935C42.3454 2.04051 41.4359 3.0296 40.6274 4.13604C39.0357 6.32378 38.1346 8.81328 37.4187 11.3782C35.5238 18.1175 34.3616 24.9992 33.5279 31.9396C33.3595 33.3394 33.2584 34.7476 33.0984 36.1474C33.0394 36.6671 32.8626 36.7929 32.332 36.7342C31.9025 36.6839 31.473 36.6001 31.0519 36.4995C29.696 36.181 28.3233 35.9463 26.9253 36.0217C25.5104 36.0972 24.0956 36.2229 22.6892 36.3319C21.5943 36.4241 21.2575 36.181 21.0301 35.1081C21.0048 34.9823 20.988 34.8566 20.9711 34.7392C20.4406 31.3277 19.9689 27.9162 19.3626 24.5214C18.4867 19.5676 17.3498 14.664 15.5981 9.93649C14.7054 7.52243 13.6527 5.17543 12.0694 3.10504C11.3535 2.16624 10.5872 1.26097 9.53444 0.690984C7.05004 -0.666923 4.2793 0.020412 2.62864 2.36741C1.38223 4.11928 0.817975 6.13938 0.506372 8.21815C-0.403173 14.312 -0.0326177 20.3639 1.18011 26.3822C2.06439 30.7913 3.66451 34.9572 5.5594 39.0225C6.17418 40.3469 6.71317 41.7216 7.21005 43.0962C7.58061 44.1189 7.4206 45.0828 6.78055 46.0384C6.08154 47.0945 5.46676 48.2177 4.93619 49.3745C1.34012 57.2621 3.32764 66.407 9.85447 72.0985C11.7325 73.733 13.7706 75.1328 16.2213 75.7279C19.9437 76.6332 23.7166 77.1613 27.5653 76.9517C31.6077 76.7338 35.4312 75.7531 38.9936 73.8252C41.6548 72.3835 43.9708 70.5478 45.7057 68.0415C47.9543 64.7892 48.7628 61.1346 48.5017 57.2537C48.3585 55.0743 47.9543 52.9117 47.6258 50.7408C47.4911 49.869 47.5332 49.0559 47.8448 48.2345C48.3501 46.8598 48.8386 45.4768 49.2849 44.077C51.045 38.5615 52.1904 32.9203 52.9905 27.1953C53.5295 23.2976 53.9084 19.3832 53.9926 15.4352Z" fill="#F5F070"/>
<path d="M55.9926 16.4352C56.0348 13.9121 55.9253 11.4059 55.4789 8.92477C55.1757 7.21482 54.7294 5.53839 53.7862 4.04637C52.0766 1.36408 48.8595 0.0145553 45.4908 2.26935C44.3454 3.04051 43.4359 4.0296 42.6274 5.13604C41.0357 7.32378 40.1346 9.81328 39.4187 12.3782C37.5238 19.1175 36.3616 25.9992 35.5279 32.9396C35.3595 34.3394 35.2584 35.7476 35.0984 37.1474C35.0394 37.6671 34.8626 37.7929 34.332 37.7342C33.9025 37.6839 33.473 37.6001 33.0519 37.4995C31.696 37.181 30.3233 36.9463 28.9253 37.0217C27.5104 37.0972 26.0956 37.2229 24.6892 37.3319C23.5943 37.4241 23.2575 37.181 23.0301 36.1081C23.0048 35.9823 22.988 35.8566 22.9711 35.7392C22.4406 32.3277 21.9689 28.9162 21.3626 25.5214C20.4867 20.5676 19.3498 15.664 17.5981 10.9365C16.7054 8.52243 15.6527 6.17543 14.0694 4.10504C13.3535 3.16624 12.5872 2.26097 11.5344 1.69098C9.05004 0.333077 6.2793 1.02041 4.62864 3.36741C3.38223 5.11928 2.81797 7.13938 2.50637 9.21815C1.59683 15.312 1.96738 21.3639 3.18011 27.3822C4.06439 31.7913 5.66451 35.9572 7.5594 40.0225C8.17418 41.3469 8.71317 42.7216 9.21005 44.0962C9.58061 45.1189 9.4206 46.0828 8.78055 47.0384C8.08154 48.0945 7.46676 49.2177 6.93619 50.3745C3.34012 58.2621 5.32764 67.407 11.8545 73.0985C13.7325 74.733 15.7706 76.1328 18.2213 76.7279C21.9437 77.6332 25.7166 78.1613 29.5653 77.9517C33.6077 77.7338 37.4312 76.7531 40.9936 74.8252C43.6548 73.3835 45.9708 71.5478 47.7057 69.0415C49.9543 65.7892 50.7628 62.1346 50.5017 58.2537C50.3585 56.0743 49.9543 53.9117 49.6258 51.7408C49.4911 50.869 49.5332 50.0559 49.8448 49.2345C50.3501 47.8598 50.8386 46.4768 51.2849 45.077C53.045 39.5615 54.1904 33.9203 54.9905 28.1953C55.5295 24.2976 55.9084 20.3832 55.9926 16.4352Z" fill="#75CBCC"/>
<path d="M57.9926 17.4352C58.0348 14.9121 57.9253 12.4059 57.4789 9.92477C57.1757 8.21482 56.7294 6.53839 55.7862 5.04637C54.0766 2.36408 50.8595 1.01456 47.4908 3.26935C46.3454 4.04051 45.4359 5.0296 44.6274 6.13604C43.0357 8.32378 42.1346 10.8133 41.4187 13.3782C39.5238 20.1175 38.3616 26.9992 37.5279 33.9396C37.3595 35.3394 37.2584 36.7476 37.0984 38.1474C37.0394 38.6671 36.8626 38.7929 36.332 38.7342C35.9025 38.6839 35.473 38.6001 35.0519 38.4995C33.696 38.181 32.3233 37.9463 30.9253 38.0217C29.5104 38.0972 28.0956 38.2229 26.6892 38.3319C25.5943 38.4241 25.2575 38.181 25.0301 37.1081C25.0048 36.9823 24.988 36.8566 24.9711 36.7392C24.4406 33.3277 23.9689 29.9162 23.3626 26.5214C22.4867 21.5676 21.3498 16.664 19.5981 11.9365C18.7054 9.52243 17.6527 7.17543 16.0694 5.10504C15.3535 4.16624 14.5872 3.26097 13.5344 2.69098C11.05 1.33308 8.2793 2.02041 6.62864 4.36741C5.38223 6.11928 4.81797 8.13938 4.50637 10.2181C3.59683 16.312 3.96738 22.3639 5.18011 28.3822C6.06439 32.7913 7.66451 36.9572 9.5594 41.0225C10.1742 42.3469 10.7132 43.7216 11.2101 45.0962C11.5806 46.1189 11.4206 47.0828 10.7805 48.0384C10.0815 49.0945 9.46676 50.2177 8.93619 51.3745C5.34012 59.2621 7.32764 68.407 13.8545 74.0985C15.7325 75.733 17.7706 77.1328 20.2213 77.7279C23.9437 78.6332 27.7166 79.1613 31.5653 78.9517C35.6077 78.7338 39.4312 77.7531 42.9936 75.8252C45.6548 74.3835 47.9708 72.5478 49.7057 70.0415C51.9543 66.7892 52.7628 63.1346 52.5017 59.2537C52.3585 57.0743 51.9543 54.9117 51.6258 52.7408C51.4911 51.869 51.5332 51.0559 51.8448 50.2345C52.3501 48.8598 52.8386 47.4768 53.2849 46.077C55.045 40.5615 56.1904 34.9203 56.9905 29.1953C57.5295 25.2976 57.9084 21.3832 57.9926 17.4352Z" fill="#283383"/>
<path d="M59.9926 18.4352C60.0348 15.9121 59.9253 13.4059 59.4789 10.9248C59.1757 9.21482 58.7294 7.53839 57.7862 6.04637C56.0766 3.36408 52.8595 2.01456 49.4908 4.26935C48.3454 5.04051 47.4359 6.0296 46.6274 7.13604C45.0357 9.32378 44.1346 11.8133 43.4187 14.3782C41.5238 21.1175 40.3616 27.9992 39.5279 34.9396C39.3595 36.3394 39.2584 37.7476 39.0984 39.1474C39.0394 39.6671 38.8626 39.7929 38.332 39.7342C37.9025 39.6839 37.473 39.6001 37.0519 39.4995C35.696 39.181 34.3233 38.9463 32.9253 39.0217C31.5104 39.0972 30.0956 39.2229 28.6892 39.3319C27.5943 39.4241 27.2575 39.181 27.0301 38.1081C27.0048 37.9823 26.988 37.8566 26.9711 37.7392C26.4406 34.3277 25.9689 30.9162 25.3626 27.5214C24.4867 22.5676 23.3498 17.664 21.5981 12.9365C20.7054 10.5224 19.6527 8.17543 18.0694 6.10504C17.3535 5.16624 16.5872 4.26097 15.5344 3.69098C13.05 2.33308 10.2793 3.02041 8.62864 5.36741C7.38223 7.11928 6.81797 9.13938 6.50637 11.2181C5.59683 17.312 5.96738 23.3639 7.18011 29.3822C8.06439 33.7913 9.66451 37.9572 11.5594 42.0225C12.1742 43.3469 12.7132 44.7216 13.2101 46.0962C13.5806 47.1189 13.4206 48.0828 12.7805 49.0384C12.0815 50.0945 11.4668 51.2177 10.9362 52.3745C7.34012 60.2621 9.32764 69.407 15.8545 75.0985C17.7325 76.733 19.7706 78.1328 22.2213 78.7279C25.9437 79.6332 29.7166 80.1613 33.5653 79.9517C37.6077 79.7338 41.4312 78.7531 44.9936 76.8252C47.6548 75.3835 49.9708 73.5478 51.7057 71.0415C53.9543 67.7892 54.7628 64.1346 54.5017 60.2537C54.3585 58.0743 53.9543 55.9117 53.6258 53.7408C53.4911 52.869 53.5332 52.0559 53.8448 51.2345C54.3501 49.8598 54.8386 48.4768 55.2849 47.077C57.045 41.5615 58.1904 35.9203 58.9905 30.1953C59.5295 26.2976 59.9084 22.3832 59.9926 18.4352Z" fill="#F34465"/>
<path d="M61.9931 19.4377C62.0352 16.9147 61.9257 14.4084 61.4794 11.9273C61.1762 10.2173 60.7298 8.54092 59.7866 7.0489C58.077 4.36661 54.8599 3.01709 51.4912 5.27188C50.3459 6.04304 49.4363 7.03213 48.6278 8.13858C47.0361 10.3263 46.135 12.8158 45.4192 15.3807C43.5243 22.12 42.3621 29.0017 41.5283 35.9421C41.3599 37.342 41.2588 38.7502 41.0988 40.15C41.0399 40.6697 40.863 40.7954 40.3324 40.7367C39.9029 40.6864 39.4734 40.6026 39.0523 40.502C37.6964 40.1835 36.3237 39.9488 34.9257 40.0242C33.5109 40.0997 32.096 40.2254 30.6896 40.3344C29.5948 40.4266 29.2579 40.1835 29.0305 39.1106C29.0052 38.9849 28.9884 38.8591 28.9716 38.7418C28.441 35.3302 27.9694 31.9187 27.363 28.5239C26.4871 23.5701 25.3502 18.6665 23.5985 13.939C22.7058 11.525 21.6531 9.17796 20.0698 7.10757C19.354 6.16877 18.5876 5.2635 17.5349 4.69352C15.0505 3.33561 12.2797 4.02294 10.6291 6.36994C9.38266 8.12181 8.8184 10.1419 8.5068 12.2207C7.59725 18.3145 7.96781 24.3664 9.18054 30.3848C10.0648 34.7938 11.6649 38.9597 13.5598 43.0251C14.1746 44.3494 14.7136 45.7241 15.2105 47.0988C15.581 48.1214 15.421 49.0853 14.781 50.0409C14.082 51.0971 13.4672 52.2203 12.9366 53.377C9.34055 61.2646 11.3281 70.4095 17.8549 76.101C19.7329 77.7355 21.771 79.1353 24.2217 79.7305C27.9441 80.6357 31.717 81.1638 35.5658 80.9542C39.6082 80.7363 43.4316 79.7556 46.994 77.8277C49.6553 76.386 51.9712 74.5503 53.7061 72.044C55.9547 68.7918 56.7632 65.1371 56.5021 61.2562C56.359 59.0769 55.9547 56.9143 55.6263 54.7433C55.4915 53.8716 55.5336 53.0585 55.8452 52.237C56.3505 50.8624 56.839 49.4793 57.2853 48.0795C59.0455 42.564 60.1908 36.9229 60.9909 31.1978C61.5299 27.3002 61.9089 23.3857 61.9931 19.4377Z" fill="white"/>
<path d="M61.9926 19.4379C61.9084 23.3775 61.5295 27.3003 60.982 31.198C60.182 36.923 59.0282 42.5642 57.2765 48.0797C56.8301 49.4795 56.3417 50.8625 55.8364 52.2372C55.5332 53.067 55.4911 53.8801 55.6174 54.7435C55.9459 56.9061 56.3501 59.077 56.4933 61.2564C56.7543 65.1289 55.9459 68.7836 53.6973 72.0442C51.9624 74.5505 49.6464 76.3862 46.9852 77.8279C43.4228 79.7642 39.5993 80.7449 35.5569 80.9544C31.7082 81.1556 27.9353 80.6359 24.2129 79.7306C21.7621 79.1355 19.7241 77.7357 17.846 76.1012C11.3192 70.4097 9.3317 61.2648 12.9362 53.3688C13.4583 52.2121 14.0731 51.0889 14.7805 50.0327C15.4122 49.0771 15.5722 48.1132 15.2101 47.0906C14.7132 45.7159 14.1826 44.3412 13.5594 43.0169C11.6645 38.9515 10.0644 34.7856 9.18011 30.3766C7.96738 24.3666 7.59683 18.3147 8.50637 12.2209C8.81797 10.1337 9.38223 8.122 10.6202 6.36175C12.2709 4.02313 15.0416 3.33579 17.526 4.68532C18.5787 5.2553 19.3451 6.16896 20.061 7.09938C21.6442 9.16138 22.6885 11.5084 23.5897 13.9308C25.3414 18.6667 26.4783 23.5619 27.3542 28.5158C27.9605 31.9105 28.4321 35.3304 28.9627 38.7336C28.9795 38.8593 28.9964 38.985 29.0217 39.1024C29.2575 40.1753 29.5943 40.4184 30.6807 40.3262C32.0956 40.2088 33.502 40.0915 34.9169 40.0161C36.3149 39.9406 37.6876 40.1753 39.0435 40.4938C39.4646 40.5944 39.8941 40.6782 40.3236 40.7285C40.8542 40.7872 41.031 40.6615 41.09 40.1418C41.25 38.742 41.351 37.3338 41.5195 35.9339C42.3532 28.9935 43.5154 22.1118 45.4103 15.3726C46.1346 12.8076 47.0357 10.3181 48.619 8.13038C49.419 7.02394 50.337 6.02646 51.4824 5.26369C54.851 3.00051 58.0681 4.35842 59.7777 7.0407C60.7294 8.53272 61.1673 10.2008 61.4705 11.9191C61.9169 14.417 62.0348 16.9232 61.9926 19.4379ZM54.0089 50.4099C54.1689 50.1333 54.3289 49.9237 54.4215 49.689C54.7331 48.8676 55.07 48.0545 55.3227 47.2079C56.8217 42.1367 57.9839 36.9901 58.9187 31.7932C60.0893 25.3305 60.4599 18.8428 59.4746 12.3215C59.2556 10.8881 58.9271 9.48829 58.1102 8.26449C57.1839 6.87306 55.9459 6.03484 54.1857 6.28631C52.9477 6.46233 52.0213 7.17482 51.2971 8.15553C50.3286 9.47152 49.6296 10.93 48.9895 12.422C47.3389 16.2527 46.2272 20.2426 45.3092 24.2912C44.1049 29.639 43.3217 35.0538 42.7659 40.5106C42.7238 40.8962 42.6311 41.2818 42.4795 41.6338C42.2606 42.1535 41.9406 42.2625 41.3931 42.1283C37.5865 41.1644 33.7462 41.0135 29.8807 41.7512C29.2069 41.8769 28.5248 41.9942 27.8426 42.0697C27.3036 42.1284 27.2447 42.0445 27.2026 41.5165C27.1436 40.7537 27.0931 39.9825 27.0089 39.2197C26.3436 33.2097 25.2572 27.2836 23.716 21.4328C22.8738 18.2141 21.8885 15.0373 20.4484 12.0281C19.8251 10.7288 19.1767 9.43799 18.1071 8.43214C16.4733 6.88982 14.2247 6.84791 12.5656 8.34832C11.4034 9.37932 10.8139 10.7456 10.4686 12.2209C9.80331 15.0205 9.66857 17.862 9.82016 20.712C10.2076 27.7194 11.9087 34.4168 14.6795 40.8543C15.3448 42.405 16.1954 43.8718 17.0039 45.3555C17.3407 45.9758 17.5008 45.9674 18.1155 45.6153C18.5029 45.3974 18.8819 45.1459 19.2862 44.9531C19.7157 44.752 20.0778 45.0286 19.9767 45.4896C19.9178 45.7578 19.7325 46.0177 19.5472 46.2272C18.6461 47.1995 17.6523 48.0964 16.8102 49.1191C15.0416 51.2481 13.5847 53.5784 13.0878 56.3445C12.5488 59.3201 12.4646 62.3125 12.9783 65.305C13.391 67.7023 14.2163 69.9403 15.7238 71.8933C16.9365 73.4524 18.4693 74.6846 20.002 75.9084C22.1832 77.6519 24.6508 78.7416 27.43 79.1355C30.6134 79.5881 33.8136 79.5546 37.0054 79.3534C39.2877 79.211 41.5279 78.8254 43.6333 77.9117C45.8735 76.9478 47.9284 75.6569 49.8317 74.1481C51.8024 72.5807 53.3183 70.6528 54.1268 68.2555C55.3732 64.559 55.4237 60.7954 54.5226 57.015C53.9162 54.4752 52.6951 52.2288 51.0613 50.192C50.8591 49.9405 50.6991 49.5801 50.6823 49.2532C50.6402 48.6413 51.1539 48.3311 51.6929 48.6161C52.0466 48.8005 52.3835 49.0436 52.6951 49.2951C53.1246 49.6304 53.5204 49.9992 54.0089 50.4099Z" fill="black"/>
<path d="M34.2691 66.7201C34.2691 66.7033 34.2691 66.6782 34.2691 66.6614C35.4987 66.6614 36.7367 66.6782 37.9663 66.653C38.64 66.6447 38.9516 66.1166 38.6316 65.5215C38.4884 65.2448 38.2526 64.9934 38.0084 64.8006C36.4251 63.5517 33.6122 63.3589 31.8774 64.3815C31.2289 64.7587 30.6562 65.2281 30.3109 65.9154C30.0414 66.4686 30.1762 66.7033 30.7741 66.7033C31.9447 66.7201 33.1069 66.7201 34.2691 66.7201ZM46.5817 61.5902C46.6153 61.5735 46.6575 61.5651 46.6911 61.5483C46.708 61.431 46.7333 61.3052 46.7417 61.1879C46.8006 60.467 46.8427 59.7378 46.9101 59.0169C46.9606 58.4888 47.0617 58.4134 47.6007 58.3966C47.8533 58.3883 48.106 58.405 48.3586 58.3966C48.586 58.3883 48.8471 58.3883 48.8471 58.0697C48.8471 57.7764 48.7124 57.5584 48.3671 57.5584C48.1144 57.5584 47.8618 57.5584 47.6091 57.5584C47.0027 57.5584 46.9859 57.5417 46.9775 56.9214C46.9691 56.6867 46.9775 56.4436 46.9606 56.2089C46.9185 55.8149 46.6238 55.7814 46.3122 55.773C46.009 55.7647 45.8911 55.9323 45.8995 56.2173C45.9079 56.4688 45.8911 56.7202 45.8995 56.9717C45.9248 57.3489 45.7479 57.4998 45.3774 57.4914C44.9815 57.483 44.5857 57.483 44.1983 57.5417C44.0551 57.5668 43.9457 57.7596 43.8193 57.8769C43.9457 57.9943 44.0636 58.1787 44.2067 58.2122C44.5352 58.2709 44.8805 58.2458 45.2173 58.2625C45.7648 58.2877 45.849 58.3799 45.8574 58.908C45.8658 59.4109 45.8574 59.9138 45.8827 60.4167C45.8911 60.9532 46.2701 61.2466 46.5817 61.5902ZM21.8892 62.7889C21.9229 62.5123 21.9482 62.3698 21.9566 62.2189C22.0071 61.5064 22.0661 60.8023 22.1082 60.0898C22.1334 59.6707 22.344 59.4863 22.7566 59.5031C23.0261 59.5115 23.2872 59.5115 23.5567 59.5031C23.7757 59.4947 24.0536 59.5115 24.0536 59.1929C24.0536 58.8744 23.902 58.6649 23.5399 58.6733C23.2198 58.6816 22.8914 58.6733 22.5714 58.6733C22.3103 58.6816 22.184 58.5643 22.184 58.3044C22.184 57.9859 22.184 57.659 22.1671 57.3405C22.1419 56.9801 21.8639 56.9046 21.5692 56.8879C21.2576 56.8711 21.0976 57.022 21.0976 57.3321C21.0976 57.6087 21.0891 57.8937 21.0976 58.1703C21.106 58.4721 20.9628 58.6062 20.6681 58.6062C20.2638 58.6146 19.8512 58.623 19.4469 58.6397C19.2195 58.6481 19.0174 58.7068 19.0258 58.9918C19.0342 59.2516 19.2027 59.3522 19.4469 59.3522C19.7585 59.3606 20.0617 59.369 20.3733 59.3774C20.9797 59.4025 21.0555 59.4779 21.0555 60.0647C21.0555 60.4838 21.0639 60.9029 21.0555 61.322C21.0302 61.9339 21.4176 62.3027 21.8892 62.7889Z" fill="white"/>
<path d="M34.2691 66.7202C33.1069 66.7202 31.9447 66.7285 30.7825 66.7202C30.1846 66.7118 30.0499 66.4771 30.3193 65.9322C30.6646 65.2449 31.2373 64.7755 31.8858 64.3983C33.6207 63.3757 36.4335 63.5685 38.0168 64.8174C38.261 65.0102 38.4884 65.2617 38.64 65.5383C38.96 66.1334 38.6484 66.6531 37.9747 66.6699C36.7451 66.695 35.5071 66.6783 34.2775 66.6783C34.2691 66.6783 34.2691 66.695 34.2691 66.7202Z" fill="black"/>
<path d="M46.5817 61.5902C46.2785 61.2465 45.8911 60.9532 45.8658 60.4335C45.8406 59.9306 45.849 59.4276 45.8406 58.9247C45.8321 58.3966 45.7479 58.3044 45.2005 58.2793C44.8636 58.2625 44.5183 58.2877 44.1899 58.229C44.0467 58.2038 43.9288 58.0111 43.8025 57.8937C43.9288 57.7764 44.0383 57.5752 44.1815 57.5584C44.5689 57.4997 44.9647 57.4997 45.3605 57.5081C45.7311 57.5165 45.9079 57.374 45.8827 56.9884C45.8658 56.737 45.8827 56.4855 45.8827 56.234C45.8742 55.949 45.9921 55.7814 46.2953 55.7898C46.6069 55.7982 46.9101 55.8317 46.9438 56.2257C46.9691 56.4604 46.9606 56.7034 46.9606 56.9381C46.9691 57.5584 46.9859 57.5752 47.5923 57.5752C47.8449 57.5752 48.0976 57.5752 48.3502 57.5752C48.6955 57.5752 48.8303 57.7847 48.8303 58.0865C48.8303 58.405 48.5692 58.405 48.3418 58.4134C48.0892 58.4218 47.8365 58.4134 47.5839 58.4134C47.0449 58.4218 46.9438 58.5056 46.8933 59.0337C46.8259 59.7545 46.7838 60.4838 46.7248 61.2046C46.7164 61.322 46.6911 61.4477 46.6743 61.5651C46.6575 61.5651 46.6154 61.5735 46.5817 61.5902Z" fill="black"/>
<path d="M21.8892 62.7889C21.4176 62.3027 21.0302 61.9339 21.0555 61.322C21.0723 60.9029 21.0555 60.4838 21.0555 60.0647C21.0555 59.478 20.9797 59.4025 20.3733 59.3774C20.0617 59.369 19.7585 59.3606 19.4469 59.3522C19.2027 59.3522 19.0343 59.2516 19.0258 58.9918C19.0174 58.7068 19.2111 58.6481 19.4469 58.6397C19.8512 58.623 20.2638 58.6146 20.6681 58.6062C20.9628 58.6062 21.106 58.4721 21.0976 58.1703C21.0892 57.8937 21.0976 57.6087 21.0976 57.3321C21.0976 57.0136 21.2576 56.8711 21.5692 56.8879C21.8724 56.9047 22.1419 56.9717 22.1671 57.3405C22.1924 57.659 22.1924 57.9859 22.184 58.3045C22.184 58.5727 22.3103 58.6817 22.5714 58.6733C22.8914 58.6649 23.2198 58.6733 23.5399 58.6733C23.902 58.6649 24.062 58.8744 24.0536 59.193C24.0536 59.5115 23.7757 59.4947 23.5567 59.5031C23.2872 59.5115 23.0261 59.5115 22.7567 59.5031C22.344 59.4863 22.1334 59.6707 22.1082 60.0898C22.0661 60.8023 22.0071 61.5064 21.9566 62.2189C21.9482 62.3698 21.9229 62.5207 21.8892 62.7889Z" fill="black"/>
<path fill-rule="evenodd" clip-rule="evenodd" d="M30.5396 49.6049C30.8755 50.3337 31.9697 51.6369 34.2155 51.6369C36.4921 51.6369 37.6286 50.2973 37.9723 49.5679C37.7392 48.8527 36.8002 47.5 34.4228 47.5C32.0463 47.5 30.8911 48.8548 30.5396 49.6049ZM29.5287 49.4361C29.8976 48.3941 31.3842 46.5 34.4228 46.5C37.4773 46.5 38.7498 48.4173 38.9882 49.495L39.0201 49.6392L38.9685 49.7776C38.5927 50.7861 37.1284 52.6369 34.2155 52.6369C31.2994 52.6369 29.8782 50.7817 29.5274 49.7662L29.4703 49.601L29.5287 49.4361Z" fill="black"/>
<path d="M34.561 49.5799C34.561 49.758 34.4166 49.9024 34.2385 49.9024C34.0604 49.9024 33.916 49.758 33.916 49.5799C33.916 49.4018 34.0604 49.2574 34.2385 49.2574C34.4166 49.2574 34.561 49.4018 34.561 49.5799Z" fill="black"/>
<path fill-rule="evenodd" clip-rule="evenodd" d="M34.2385 50.0081C34.475 50.0081 34.6667 49.8164 34.6667 49.5799C34.6667 49.3435 34.475 49.1518 34.2385 49.1518C34.002 49.1518 33.8103 49.3435 33.8103 49.5799C33.8103 49.8164 34.002 50.0081 34.2385 50.0081ZM34.2385 51.0081C35.0273 51.0081 35.6667 50.3687 35.6667 49.5799C35.6667 48.7912 35.0273 48.1518 34.2385 48.1518C33.4497 48.1518 32.8103 48.7912 32.8103 49.5799C32.8103 50.3687 33.4497 51.0081 34.2385 51.0081Z" fill="black"/>
</svg>
